<svg width="120" height="120" viewBox="0 0 120 120" fill="none" xmlns="http://www.w3.org/2000/svg">
<rect width="120" height="120" fill="white"/>
<path d="M58.4678 38L47.1165 72.1463H38.4915L30.8578 49.0244L22.9763 72.1463H14.4009L3 38H11.3276L19.1595 62L27.3384 38H34.7738L42.7048 62.1951L50.7846 38H58.4678Z" fill="#141517"/>
<path d="M71.1773 45.5122C75.308 45.5122 78.4804 46.4878 80.6945 48.439C82.9086 50.3577 84.0156 53.2683 84.0156 57.1707V72.1463H76.7786V68.878C75.3245 71.3171 72.6148 72.5366 68.6492 72.5366C66.6004 72.5366 64.8159 72.1951 63.2958 71.5122C61.8087 70.8293 60.6686 69.8862 59.8755 68.6829C59.0824 67.4797 58.6858 66.1138 58.6858 64.5854C58.6858 62.1463 59.6111 60.2276 61.4617 58.8293C63.3453 57.4309 66.2369 56.7317 70.1363 56.7317H76.2829C76.2829 55.0732 75.7707 53.8049 74.7462 52.9268C73.7218 52.0163 72.1852 51.561 70.1363 51.561C68.7153 51.561 67.3109 51.7886 65.9229 52.2439C64.568 52.6667 63.4114 53.252 62.4531 54L59.6772 48.6829C61.1312 47.6748 62.8662 46.8943 64.882 46.3415C66.9308 45.7886 69.0293 45.5122 71.1773 45.5122ZM70.5824 67.4146C71.9043 67.4146 73.0774 67.1219 74.1018 66.5366C75.1263 65.9187 75.8533 65.0244 76.2829 63.8537V61.1707H70.979C67.8066 61.1707 66.2203 62.1951 66.2203 64.2439C66.2203 65.2195 66.6004 66 67.3604 66.5854C68.1535 67.1382 69.2275 67.4146 70.5824 67.4146Z" fill="#141517"/>
<path d="M117 45.9024L104.955 73.7561C103.732 76.7805 102.212 78.9106 100.394 80.1463C98.6099 81.3821 96.4454 82 93.9008 82C92.5129 82 91.1415 81.7886 89.7866 81.3659C88.4317 80.9431 87.3246 80.3577 86.4654 79.6098L89.2909 74.1951C89.8857 74.7154 90.5632 75.1219 91.3232 75.4146C92.1163 75.7073 92.8929 75.8537 93.653 75.8537C94.7104 75.8537 95.5696 75.5935 96.2306 75.0732C96.8915 74.5854 97.4863 73.7561 98.015 72.5854L98.1142 72.3415L86.5646 45.9024H94.5452L102.03 63.7073L109.565 45.9024H117Z" fill="#141517"/>
<path d="M117.035 45.9004L104.989 73.7541C103.767 76.7784 102.246 78.9085 100.429 80.1443C98.6444 81.3801 96.4799 81.998 93.9354 81.998C92.5474 81.998 91.176 81.7866 89.8211 81.3638C88.4662 80.941 87.3592 80.3557 86.5 79.6077L89.3254 74.1931C89.9203 74.7134 90.5977 75.1199 91.3578 75.4126C92.1509 75.7053 92.9275 75.8516 93.6875 75.8516C94.745 75.8516 95.6042 75.5914 96.2651 75.0711C96.926 74.5833 97.5209 73.754 98.0496 72.5833L98.1487 72.3394L102.065 63.7053L109.599 45.9004H117.035Z" fill="#FE7865"/>
</svg>
