<svg width="196" height="196" viewBox="0 0 196 196" fill="none" xmlns="http://www.w3.org/2000/svg">
<path d="M95.4034 62.7812L77.1328 117.742H63.2504L50.9636 80.5256L38.278 117.742H24.4753L6.125 62.7812H19.5287L32.1346 101.411L45.299 62.7812H57.2666L70.032 101.725L83.0368 62.7812H95.4034Z" fill="#141517"/>
<path d="M115.86 74.8725C122.509 74.8725 127.615 76.4428 131.178 79.5834C134.742 82.6717 136.524 87.3564 136.524 93.6375V117.742H124.875V112.481C122.535 116.407 118.174 118.37 111.791 118.37C108.493 118.37 105.621 117.82 103.174 116.721C100.781 115.622 98.9457 114.104 97.6691 112.167C96.3926 110.23 95.7543 108.032 95.7543 105.572C95.7543 101.646 97.2436 98.5578 100.222 96.307C103.254 94.0563 107.908 92.9309 114.184 92.9309H124.078C124.078 90.2614 123.253 88.22 121.604 86.8068C119.955 85.3412 117.482 84.6084 114.184 84.6084C111.897 84.6084 109.637 84.9747 107.403 85.7076C105.222 86.388 103.36 87.3302 101.818 88.5341L97.35 79.976C99.6903 78.3533 102.483 77.0971 105.727 76.2073C109.025 75.3174 112.403 74.8725 115.86 74.8725ZM114.902 110.126C117.03 110.126 118.918 109.655 120.567 108.712C122.216 107.718 123.386 106.278 124.078 104.394V100.076H115.541C110.435 100.076 107.881 101.725 107.881 105.022C107.881 106.592 108.493 107.849 109.717 108.791C110.993 109.681 112.722 110.126 114.902 110.126Z" fill="#141517"/>
<path d="M189.614 75.5006L170.226 120.333C168.258 125.2 165.812 128.629 162.886 130.618C160.014 132.607 156.53 133.602 152.435 133.602C150.201 133.602 147.993 133.261 145.813 132.581C143.632 131.9 141.85 130.958 140.467 129.754L145.015 121.039C145.972 121.877 147.063 122.531 148.286 123.002C149.562 123.473 150.812 123.709 152.036 123.709C153.738 123.709 155.121 123.29 156.184 122.452C157.248 121.667 158.206 120.333 159.057 118.448L159.216 118.056L140.627 75.5006H153.472L165.519 104.159L177.646 75.5006H189.614Z" fill="#141517"/>
<path d="M189.67 75.4974L170.282 120.329C168.314 125.197 165.867 128.626 162.942 130.615C160.07 132.604 156.586 133.598 152.49 133.598C150.256 133.598 148.049 133.258 145.868 132.578C143.687 131.897 141.906 130.955 140.523 129.751L145.07 121.036C146.028 121.873 147.118 122.528 148.341 122.999C149.618 123.47 150.868 123.705 152.091 123.705C153.793 123.705 155.176 123.287 156.24 122.449C157.304 121.664 158.261 120.329 159.112 118.445L159.272 118.052L165.575 104.155L177.702 75.4974H189.67Z" fill="#FE7865"/>
</svg>
